<svg xmlns="http://www.w3.org/2000/svg" xmlns:xlink="http://www.w3.org/1999/xlink" width="500" zoomAndPan="magnify" viewBox="0 0 375 374.999991" height="500" preserveAspectRatio="xMidYMid meet" version="1.0"><defs><g><g id="id1"/></g></defs><rect x="-37.5" width="450" fill="rgb(100%, 100%, 100%)" y="-37.499999" height="449.999989" fill-opacity="1"/><rect x="-37.5" width="450" fill="rgb(100%, 100%, 100%)" y="-37.499999" height="449.999989" fill-opacity="1"/><rect x="-37.5" width="450" fill="rgb(100%, 100%, 100%)" y="-37.499999" height="449.999989" fill-opacity="1"/><rect x="-37.5" width="450" fill="rgb(100%, 100%, 100%)" y="-37.499999" height="449.999989" fill-opacity="1"/><path fill="rgb(0%, 0%, 0%)" d="M 182.300781 58.09375 C 129.488281 58.09375 86.675781 100.90625 86.675781 153.71875 C 86.675781 206.53125 129.488281 249.34375 182.300781 249.34375 C 235.113281 249.34375 277.925781 206.53125 277.925781 153.71875 C 277.925781 100.90625 235.113281 58.09375 182.300781 58.09375 " fill-opacity="1" fill-rule="nonzero"/><path fill="rgb(0%, 0%, 0%)" d="M 234.765625 100.230469 C 205.125 96.269531 188.503906 119.03125 181.433594 149.089844 C 174.363281 119.15625 157.867188 96.269531 128.101562 100.230469 C 98.085938 104.1875 80.101562 142.164062 88.910156 177.914062 C 95.109375 203.023438 126.242188 259.800781 181.433594 290.726562 C 236.75 259.800781 267.757812 203.148438 273.960938 177.914062 C 282.890625 142.164062 264.90625 104.1875 234.765625 100.230469 Z M 234.765625 100.230469 " fill-opacity="1" fill-rule="nonzero"/><g fill="rgb(100%, 100%, 100%)" fill-opacity="1"><g transform="translate(142.639433, 225.045661)"><g><path d="M 58.390625 2.015625 C 32.253906 2.015625 19.1875 -10.910156 19.1875 -36.765625 L 19.1875 -79.8125 L 8.6875 -79.8125 C 1.945312 -79.8125 -1.421875 -82.976562 -1.421875 -89.3125 C -1.421875 -95.632812 1.945312 -98.796875 8.6875 -98.796875 L 19.1875 -98.796875 L 19.1875 -117.1875 C 19.1875 -125.675781 23.429688 -129.921875 31.921875 -129.921875 C 40.273438 -129.921875 44.453125 -125.675781 44.453125 -117.1875 L 44.453125 -98.796875 L 65.875 -98.796875 C 72.601562 -98.796875 75.96875 -95.632812 75.96875 -89.3125 C 75.96875 -82.976562 72.601562 -79.8125 65.875 -79.8125 L 44.453125 -79.8125 L 44.453125 -38.1875 C 44.453125 -31.71875 45.863281 -26.867188 48.6875 -23.640625 C 51.519531 -20.410156 56.101562 -18.796875 62.4375 -18.796875 C 64.726562 -18.796875 66.75 -18.992188 68.5 -19.390625 C 70.25 -19.796875 71.796875 -20.066406 73.140625 -20.203125 C 74.753906 -20.335938 76.097656 -19.832031 77.171875 -18.6875 C 78.253906 -17.539062 78.796875 -15.21875 78.796875 -11.71875 C 78.796875 -9.019531 78.359375 -6.628906 77.484375 -4.546875 C 76.609375 -2.460938 75.023438 -1.015625 72.734375 -0.203125 C 70.984375 0.335938 68.691406 0.84375 65.859375 1.3125 C 63.035156 1.78125 60.546875 2.015625 58.390625 2.015625 Z M 58.390625 2.015625 "/></g></g></g></svg>