<svg xmlns="http://www.w3.org/2000/svg" xmlns:xlink="http://www.w3.org/1999/xlink" width="500" zoomAndPan="magnify" viewBox="0 0 375 374.999991" height="500" preserveAspectRatio="xMidYMid meet" version="1.0"><defs><g><g id="id1"/></g></defs><path fill="#E02401" d="M 154.125 0 C 69.003906 0 0 69.003906 0 154.125 C 0 239.246094 69.003906 308.25 154.125 308.25 C 239.246094 308.25 308.25 239.246094 308.25 154.125 C 308.25 69.003906 239.246094 0 154.125 0 " fill-opacity="1" fill-rule="nonzero"/><path fill="#E02401" d="M 238.457031 67.847656 C 190.726562 61.472656 163.964844 98.125 152.582031 146.527344 C 141.195312 98.324219 114.636719 61.472656 66.703125 67.847656 C 18.375 74.222656 -10.585938 135.371094 3.59375 192.9375 C 13.582031 233.371094 63.707031 324.796875 152.582031 374.59375 C 241.652344 324.796875 291.582031 233.570312 301.566406 192.9375 C 315.945312 135.371094 286.988281 74.222656 238.457031 67.847656 Z M 238.457031 67.847656 " fill-opacity="1" fill-rule="nonzero"/><g fill="rgb(100%, 100%, 100%)" fill-opacity="1"><g transform="translate(89.788064, 261.410447)"><g><path d="M 94.5 3.265625 C 52.207031 3.265625 31.0625 -17.660156 31.0625 -59.515625 L 31.0625 -129.171875 L 14.0625 -129.171875 C 3.15625 -129.171875 -2.296875 -134.296875 -2.296875 -144.546875 C -2.296875 -154.785156 3.15625 -159.90625 14.0625 -159.90625 L 31.0625 -159.90625 L 31.0625 -189.671875 C 31.0625 -203.398438 37.929688 -210.265625 51.671875 -210.265625 C 65.179688 -210.265625 71.9375 -203.398438 71.9375 -189.671875 L 71.9375 -159.90625 L 106.609375 -159.90625 C 117.503906 -159.90625 122.953125 -154.785156 122.953125 -144.546875 C 122.953125 -134.296875 117.503906 -129.171875 106.609375 -129.171875 L 71.9375 -129.171875 L 71.9375 -61.8125 C 71.9375 -51.34375 74.222656 -43.488281 78.796875 -38.25 C 83.378906 -33.019531 90.796875 -30.40625 101.046875 -30.40625 C 104.753906 -30.40625 108.023438 -30.734375 110.859375 -31.390625 C 113.691406 -32.046875 116.195312 -32.484375 118.375 -32.703125 C 120.988281 -32.921875 123.164062 -32.101562 124.90625 -30.25 C 126.65625 -28.394531 127.53125 -24.632812 127.53125 -18.96875 C 127.53125 -14.601562 126.820312 -10.734375 125.40625 -7.359375 C 123.988281 -3.984375 121.425781 -1.640625 117.71875 -0.328125 C 114.882812 0.546875 111.175781 1.363281 106.59375 2.125 C 102.019531 2.882812 97.988281 3.265625 94.5 3.265625 Z M 94.5 3.265625 "/></g></g></g></svg>